PathFileType	4	(X/Y/Z)	C:/Users/beibeiliu/ov580/test_trc/User1\sequence.25_training_dense_right.trc
DataRate	CameraRate	NumFrames	NumMarkers	Units	OrigDataRate	OrigDataStartFrame	OrigNumFrames
120	120	10	19	mm	120	57	84
Frame#	Time	ThumbCMC			ThumbMCP			ThumbIP			ThumbTip			IndexMCP			IndexPIP			IndexTip			MiddleMCP			MiddlePIP			MiddleTip			RingMCP			RingPIP			RingTip			PinkyMCP			PinkyPIP			PinkyTip			BackHand1			BackHand2			BackHand3	
		X0	Y0	Z0	X1	Y1	Z1	X2	Y2	Z2	X3	Y3	Z3	X4	Y4	Z4	X5	Y5	Z5	X6	Y6	Z6	X7	Y7	Z7	X8	Y8	Z8	X9	Y9	Z9	X10	Y10	Z10	X11	Y11	Z11	X12	Y12	Z12	X13	Y13	Z13	X14	Y14	Z14	X15	Y15	Z15	X16	Y16	Z16	X17	Y17	Z17	X18	Y18	Z18	
56	0.466667	143.879	57.0332	106.535	126.525	58.1096	69.7849	121.114	66.2467	41.8472	120.672	69.696	14.2637	157.133	112.991	41.9825	143.472	106.622	13.3187	126.916	81.8123	-2.87518	171.938	93.6385	28.649	152.383	66.556	17.4042	157.564	49.1457	53.703	180.207	69.7438	23.5394	165.111	43.23	25.7563	165.949	37.5518	58.5935	194.628	52.5489	28.9133	174.43	33.4957	36.8124	176.296	27.51	66.9014	213.351	68.1918	83.6798	214.379	51.8681	111.688	181.301	75.9607	111.394	
57	0.475	125.153	43.424	104.119	108.897	34.6736	71.9154	100.622	33.95	47.1532	93.7844	33.5318	22.2101	122.994	88.792	38.8125	112.543	76.4137	9.7146	100.628	48.5962	-0.532606	142.62	72.7277	23.1285	125.561	39.2534	20.3105	133.821	31.7167	54.5252	157.06	52.336	24.4676	140.598	22.7455	30.3518	148.862	26.2919	66.2865	173.315	35.2672	28.8721	158.035	12.3843	40.1443	160.426	18.8566	75.9264	186.551	63.1184	76.288	190.291	50.1441	112.293	158.49	69.6419	106.075	
58	0.483333	108.722	46.9213	102.5	89.8569	30.5501	76.1041	79.7326	26.7634	48.5084	67.1485	19.5245	30.4916	116.017	61.5602	21.5782	98.5069	43.1317	2.06757	81.3951	21.3526	1.17707	126.132	37.2058	14.5555	102.735	16.5715	20.5814	107.146	18.1784	60.1313	132.234	14.3019	22.8044	112.513	-1.40484	42.3278	124.98	14.6041	72.7957	146.741	-3.13365	34.96	124.747	-7.35839	54.7549	133.901	8.17906	81.3816	170.703	36.7085	72.4617	177.608	31.6078	104.447	152.433	57.8425	95.959	
59	0.491667	116.514	56.7772	92.6846	87.8072	47.1502	73.3946	73.471	40.2715	49.415	57.6908	33.6102	35.5609	120.724	39.6372	15.9568	95.6246	29.912	-0.12867	61.6655	17.2867	4.96484	116.394	11.0134	16.5751	81.4155	11.8859	29.1478	96.2894	20.6967	64.8573	111.178	-8.24492	31.6602	85.7894	-1.91227	50.1505	104.681	8.89292	76.9067	111.2	-23.4546	49.0851	93.993	-14.1463	67.115	117.165	5.5995	84.2096	159.968	0.826779	66.8665	168.524	6.20022	104.31	157.248	42.8229	85.398	
60	0.5	141.137	55.7572	81.4192	111.008	58.4174	63.008	91.1694	58.9341	42.338	74.5409	52.4609	27.8668	123.993	18.6174	7.68896	96.1115	18.5386	-3.43216	68.6806	23.7053	1.20934	111.462	2.92317	16.2762	81.4261	19.4717	29.7939	96.4865	32.7355	59.6324	97.3572	-10.9676	36.0709	78.9186	8.8696	54.9838	105.73	17.4828	75.6812	94.4374	-20.8761	56.2586	83.4086	0.794822	72.425	113.814	8.99324	88.5871	149.032	-15.6097	75.69	160.406	-7.72069	105.225	164.003	16.803	80.163	
61	0.508333	162.943	51.9863	76.8446	134.279	60.9496	53.1149	115.666	59.34	30.0214	97.6858	60.6902	14.6696	140.928	7.59084	6.05982	115.822	12.6082	-8.38102	90.6437	29.9038	-10.4026	124.732	-1.29504	15.703	98.1284	20.4289	20.7518	114.275	35.4395	53.2747	103.608	-8.3606	34.0175	92.3209	17.8392	46.9544	114.835	19.06	72.8298	98.0102	-19.0419	55.3599	91.509	8.96766	64.4002	120.486	11.6443	81.0996	151.606	-21.6948	78.1064	163.547	-11.6935	110.201	180.106	10.4138	77.1506	
62	0.516667	182.841	49.9216	75.3911	158.881	61.6759	50.3786	144.528	56.1496	23.4036	130.676	61.1962	6.33583	174.59	6.02396	6.50621	150.386	11.5924	-16.5246	125.568	26.9409	-18.6011	152.242	-1.22491	9.14318	129.368	22.6583	8.02469	138.345	35.4013	47.5581	131.23	-8.39112	26.0733	117.979	21.5059	33.8582	133.711	22.9389	62.6455	120.743	-16.0226	43.7385	112.942	11.5293	51.741	136.664	15.4809	75.664	171.729	-21.7647	72.4172	176.956	-9.8469	109.095	196.07	8.26981	81.3131	
63	0.525	192.97	54.5492	82.0517	174.432	62.9588	50.2115	167.065	59.5143	22.9118	156.043	61.3402	2.84427	206.623	17.7784	8.63134	188.81	20.2294	-15.0899	163.214	34.0134	-25.3238	186.116	4.9564	8.64271	159.117	28.4375	4.31242	160.14	39.9153	40.4979	163.659	-2.53706	16.2577	144.63	20.4304	23.2938	154.037	24.043	57.2365	152.683	-13.3065	31.4569	137.432	10.6248	40.5614	155.431	17.6053	65.0092	194.377	-14.3913	73.555	190.338	-12.267	108.769	213.295	16.517	90.0925	
64	0.533333	177.966	62.206	92.6544	161.168	67.2037	54.5531	155.163	70.3301	28.5662	149.94	63.8314	6.58897	212.381	49.8822	18.1359	198.263	49.3218	-8.73815	168.078	54.516	-24.4473	201.88	33.4903	10.6689	167.978	38.1522	3.89773	159.043	40.8831	42.8699	184.71	9.09003	15.4638	153.905	22.9017	22.1005	159.263	26.4428	54.3278	178.241	-4.51426	28.8761	152.478	8.98396	33.5068	161.444	15.7525	67.7124	210.793	3.32213	74.5174	201.451	1.94722	109.378	210.675	38.524	94.9988	
65	0.541667	145.107	54.4257	100.696	125.697	53.5625	67.3849	126.926	56.5606	34.567	121.893	54.94	12.4407	176.802	84.3684	25.587	165.675	76.6913	1.21736	144.522	64.1594	-15.53	181.459	63.6971	18.9652	152.896	44.5976	9.73271	147.599	34.8719	50.9353	183.179	37.7506	20.5939	153.952	23.7353	21.7105	157.028	20.8579	56.8071	190.149	15.7438	29.9548	160.051	6.26912	33.2781	160.54	16.3395	64.5684	208.222	35.3014	75.809	205.844	18.345	113.046	189.767	55.7973	102.614	
